<?xml version="1.0" standalone="no"?>
<!DOCTYPE svg PUBLIC "-//W3C//DTD SVG 20010904//EN"
 "http://www.w3.org/TR/2001/REC-SVG-20010904/DTD/svg10.dtd">
<svg version="1.0" xmlns="http://www.w3.org/2000/svg"
 width="96.000000pt" height="96.000000pt" viewBox="0 0 96.000000 96.000000"
 preserveAspectRatio="xMidYMid meet">
<metadata>
Created by potrace 1.11, written by Peter Selinger 2001-2013
</metadata>
<g transform="translate(0.000000,96.000000) scale(0.100000,-0.100000)"
fill="#000000" stroke="none">
<path d="M588 880 c-20 -11 -39 -24 -43 -29 -3 -6 -16 -6 -35 0 -34 12 -83 -7
-121 -47 -12 -13 -33 -24 -46 -24 -17 0 -56 -31 -134 -107 l-109 -107 35 -36
c19 -20 35 -40 35 -45 0 -5 -27 -37 -61 -71 l-61 -62 153 -151 152 -152 67 66
66 65 39 -40 39 -40 93 92 c53 53 103 112 115 138 12 25 32 58 46 74 33 41 42
69 33 103 -6 22 -2 36 17 66 53 80 38 167 -44 251 -71 73 -162 95 -236 56z
m141 -60 c46 -23 98 -82 106 -122 13 -59 -16 -115 -83 -155 -106 -65 -274 110
-207 214 52 82 110 101 184 63z m-246 -48 c-6 -16 -12 -19 -23 -11 -13 8 -12
11 4 24 24 18 29 14 19 -13z m-73 -51 c18 -4 58 -50 63 -73 16 -62 108 -151
182 -175 40 -13 77 -67 69 -102 -4 -14 -23 -44 -44 -65 -35 -36 -40 -38 -55
-23 -13 13 -13 20 -3 36 9 15 9 23 -1 35 -8 9 -17 16 -21 16 -4 0 -45 -38 -91
-84 l-83 -84 -18 28 c-9 16 -29 37 -43 46 -24 16 -25 18 -8 36 16 18 16 20 -5
40 -20 21 -22 21 -40 5 -18 -17 -20 -16 -36 8 -9 14 -30 34 -47 44 l-30 18 38
35 c21 19 60 57 87 86 49 51 49 52 31 72 -17 19 -19 19 -36 4 -15 -14 -21 -14
-34 -4 -21 17 -19 26 13 58 42 44 69 54 112 43z m-160 -153 c0 -5 -7 -16 -15
-25 -12 -12 -19 -13 -30 -3 -20 17 -19 37 2 49 18 10 43 -2 43 -21z m540 -98
c-12 -23 -30 -27 -30 -7 0 17 10 27 27 27 11 0 11 -5 3 -20z m-604 -106 c30
-8 63 -69 46 -86 -9 -9 -22 -3 -57 32 -54 53 -50 70 11 54z m403 -127 c8 -11
6 -18 -8 -31 -17 -16 -20 -16 -35 0 -13 12 -14 19 -5 30 15 18 33 18 48 1z
m-248 -26 c30 -30 39 -71 16 -71 -19 0 -90 77 -83 89 12 19 36 12 67 -18z"/>
<path d="M612 767 l-32 -33 80 -79 80 -80 32 33 31 34 -39 55 c-22 30 -57 66
-80 79 l-40 24 -32 -33z"/>
<path d="M407 512 l-27 -28 53 -52 53 -52 27 28 27 28 -53 52 -53 52 -27 -28z"/>
</g>
</svg>
