<?xml version="1.0" standalone="no"?>
<!DOCTYPE svg PUBLIC "-//W3C//DTD SVG 20010904//EN"
 "http://www.w3.org/TR/2001/REC-SVG-20010904/DTD/svg10.dtd">
<svg version="1.0" xmlns="http://www.w3.org/2000/svg"
 width="100.000000pt" height="100.000000pt" viewBox="0 0 100.000000 100.000000"
 preserveAspectRatio="xMidYMid meet">
<metadata>
Created by potrace 1.11, written by Peter Selinger 2001-2013
</metadata>
<g transform="translate(0.000000,100.000000) scale(0.100000,-0.100000)"
fill="#000000" stroke="none">
<path d="M430 974 c-90 -33 -131 -73 -145 -142 -4 -20 -16 -37 -29 -43 -35
-16 -56 -61 -56 -117 0 -33 -7 -63 -20 -85 -19 -32 -20 -48 -17 -207 4 -194 6
-200 79 -200 l38 0 0 -68 c0 -40 5 -73 12 -80 17 -17 399 -17 416 0 7 7 12 40
12 80 l0 68 38 0 c73 0 75 6 79 196 3 154 2 173 -17 209 -12 23 -20 59 -20 88
0 55 -22 100 -56 116 -13 6 -26 22 -29 38 -20 95 -85 144 -199 149 -39 2 -78
1 -86 -2z m169 -55 c52 -23 72 -56 78 -126 9 -114 -48 -168 -177 -168 -113 0
-164 36 -176 126 -12 86 20 149 91 174 52 19 135 16 184 -6z m-307 -214 c14
-42 14 -45 -3 -45 -9 0 -24 -3 -33 -6 -13 -5 -16 1 -16 26 0 33 15 70 29 70 5
0 15 -20 23 -45z m458 26 c5 -11 10 -34 10 -51 0 -25 -3 -31 -16 -26 -9 3 -24
6 -33 6 -17 0 -17 3 -3 45 16 49 26 55 42 26z m-367 -127 c44 -23 158 -27 210
-8 67 26 117 29 153 9 44 -23 56 -57 52 -146 l-3 -74 -37 -3 -37 -3 -3 58 c-2
44 -7 58 -18 58 -13 0 -15 -27 -18 -176 l-2 -176 -45 10 c-31 7 -56 7 -80 0
l-34 -11 -3 57 c-2 42 -7 56 -18 56 -11 0 -16 -14 -18 -58 -2 -37 -7 -55 -14
-51 -20 12 -77 15 -112 6 l-36 -10 -2 176 c-3 149 -5 177 -18 177 -11 0 -16
-14 -18 -58 l-3 -58 -37 3 -37 3 -3 75 c-4 83 13 129 51 148 33 16 94 14 130
-4z m-103 -284 c0 -16 -7 -20 -34 -20 -36 0 -52 12 -41 30 3 6 22 10 41 10 27
0 34 -4 34 -20z m515 0 c0 -10 -12 -16 -37 -18 -33 -3 -38 0 -38 18 0 18 5 21
38 18 25 -2 37 -8 37 -18z m-515 -80 c0 -16 -7 -20 -34 -20 -36 0 -52 12 -41
30 3 6 22 10 41 10 27 0 34 -4 34 -20z m515 0 c0 -10 -12 -16 -37 -18 -33 -3
-38 0 -38 18 0 18 5 21 38 18 25 -2 37 -8 37 -18z m-330 -140 c8 -7 15 -19 15
-26 0 -11 -19 -14 -81 -14 -71 0 -80 2 -77 17 7 39 105 55 143 23z m200 0 c8
-7 15 -19 15 -26 0 -11 -19 -14 -81 -14 -71 0 -80 2 -77 17 7 39 105 55 143
23z"/>
<path d="M430 884 c-49 -21 -70 -51 -70 -101 0 -71 20 -83 140 -83 119 0 140
12 140 80 0 53 -22 84 -71 104 -49 20 -93 20 -139 0z m125 -38 c35 -15 51 -45
43 -83 -3 -16 -14 -18 -98 -18 l-95 0 -3 37 c-3 33 1 40 30 58 39 24 76 25
123 6z"/>
<path d="M392 528 c-7 -7 -12 -42 -12 -88 0 -46 5 -81 12 -88 16 -16 200 -16
216 0 16 16 16 160 0 176 -16 16 -200 16 -216 0z m188 -88 l0 -60 -80 0 -80 0
0 60 0 60 80 0 80 0 0 -60z"/>
</g>
</svg>
